<mxfile host="app.diagrams.net" modified="2024-05-28T15:02:39.608Z" agent="Mozilla/5.0 (Macintosh; Intel Mac OS X 10_15_7) AppleWebKit/537.36 (KHTML, like Gecko) Chrome/125.0.0.0 Safari/537.36" etag="LUah8fxcfFxf5OlazYKP" version="24.4.6" type="device">
  <diagram name="PaginÄƒ-1" id="LONzBZQj4pi9Eozu-RzO">
    <mxGraphModel dx="1493" dy="809" grid="1" gridSize="10" guides="1" tooltips="1" connect="1" arrows="1" fold="1" page="1" pageScale="1" pageWidth="827" pageHeight="1169" math="0" shadow="0">
      <root>
        <mxCell id="0" />
        <mxCell id="1" parent="0" />
        <mxCell id="dQhIs027J35jETpGOHtC-5" value="s" style="group" vertex="1" connectable="0" parent="1">
          <mxGeometry x="210" y="80" width="940" height="550" as="geometry" />
        </mxCell>
        <mxCell id="dQhIs027J35jETpGOHtC-1" value="" style="rounded=1;whiteSpace=wrap;html=1;" vertex="1" parent="dQhIs027J35jETpGOHtC-5">
          <mxGeometry width="920" height="460" as="geometry" />
        </mxCell>
        <mxCell id="dQhIs027J35jETpGOHtC-2" value="&lt;font style=&quot;font-size: 15px;&quot;&gt;VPN Environment&lt;/font&gt;" style="text;html=1;align=center;verticalAlign=middle;whiteSpace=wrap;rounded=0;" vertex="1" parent="dQhIs027J35jETpGOHtC-5">
          <mxGeometry x="330" y="459.99923076923085" width="260" height="31.73076923076923" as="geometry" />
        </mxCell>
        <mxCell id="dQhIs027J35jETpGOHtC-6" value="" style="shape=mxgraph.signs.tech.computer;html=1;pointerEvents=1;fillColor=#000000;strokeColor=none;verticalLabelPosition=bottom;verticalAlign=top;align=center;" vertex="1" parent="dQhIs027J35jETpGOHtC-5">
          <mxGeometry x="435" y="30" width="70" height="70" as="geometry" />
        </mxCell>
        <mxCell id="dQhIs027J35jETpGOHtC-7" value="Diffie-Hellman Server" style="text;html=1;align=center;verticalAlign=middle;whiteSpace=wrap;rounded=0;" vertex="1" parent="dQhIs027J35jETpGOHtC-5">
          <mxGeometry x="425" y="110" width="90" height="30" as="geometry" />
        </mxCell>
        <mxCell id="dQhIs027J35jETpGOHtC-8" value="" style="rounded=1;whiteSpace=wrap;html=1;" vertex="1" parent="dQhIs027J35jETpGOHtC-5">
          <mxGeometry x="70" y="230" width="810" height="200" as="geometry" />
        </mxCell>
        <mxCell id="dQhIs027J35jETpGOHtC-9" value="&lt;font style=&quot;font-size: 14px;&quot;&gt;EC2 Environment&lt;/font&gt;" style="text;html=1;align=center;verticalAlign=middle;whiteSpace=wrap;rounded=0;" vertex="1" parent="dQhIs027J35jETpGOHtC-5">
          <mxGeometry x="410" y="238.85000000000002" width="120" height="30" as="geometry" />
        </mxCell>
        <mxCell id="dQhIs027J35jETpGOHtC-10" value="" style="shape=mxgraph.signs.tech.computer;html=1;pointerEvents=1;fillColor=#000000;strokeColor=none;verticalLabelPosition=bottom;verticalAlign=top;align=center;" vertex="1" parent="dQhIs027J35jETpGOHtC-5">
          <mxGeometry x="355" y="295" width="70" height="70" as="geometry" />
        </mxCell>
        <mxCell id="dQhIs027J35jETpGOHtC-11" value="" style="shape=mxgraph.signs.tech.computer;html=1;pointerEvents=1;fillColor=#000000;strokeColor=none;verticalLabelPosition=bottom;verticalAlign=top;align=center;" vertex="1" parent="dQhIs027J35jETpGOHtC-5">
          <mxGeometry x="520" y="295" width="70" height="70" as="geometry" />
        </mxCell>
        <mxCell id="dQhIs027J35jETpGOHtC-12" value="Alice Endpoint" style="text;html=1;align=center;verticalAlign=middle;whiteSpace=wrap;rounded=0;" vertex="1" parent="dQhIs027J35jETpGOHtC-5">
          <mxGeometry x="315" y="365" width="150" height="30" as="geometry" />
        </mxCell>
        <mxCell id="dQhIs027J35jETpGOHtC-13" value="Bob Endpoint" style="text;html=1;align=center;verticalAlign=middle;whiteSpace=wrap;rounded=0;" vertex="1" parent="dQhIs027J35jETpGOHtC-5">
          <mxGeometry x="500" y="365" width="110" height="30" as="geometry" />
        </mxCell>
        <mxCell id="dQhIs027J35jETpGOHtC-14" value="" style="endArrow=classic;startArrow=classic;html=1;rounded=0;entryX=0;entryY=0.75;entryDx=0;entryDy=0;" edge="1" parent="dQhIs027J35jETpGOHtC-5" source="dQhIs027J35jETpGOHtC-10" target="dQhIs027J35jETpGOHtC-7">
          <mxGeometry width="50" height="50" relative="1" as="geometry">
            <mxPoint x="310" y="220" as="sourcePoint" />
            <mxPoint x="360" y="170" as="targetPoint" />
          </mxGeometry>
        </mxCell>
        <mxCell id="dQhIs027J35jETpGOHtC-15" value="" style="endArrow=classic;startArrow=classic;html=1;rounded=0;entryX=1;entryY=1;entryDx=0;entryDy=0;exitX=0.5;exitY=0;exitDx=0;exitDy=0;exitPerimeter=0;" edge="1" parent="dQhIs027J35jETpGOHtC-5" source="dQhIs027J35jETpGOHtC-11" target="dQhIs027J35jETpGOHtC-7">
          <mxGeometry width="50" height="50" relative="1" as="geometry">
            <mxPoint x="406" y="305" as="sourcePoint" />
            <mxPoint x="435" y="143" as="targetPoint" />
          </mxGeometry>
        </mxCell>
        <mxCell id="dQhIs027J35jETpGOHtC-16" value="&lt;ol&gt;&lt;li style=&quot;text-align: justify;&quot;&gt;generate p,q&lt;/li&gt;&lt;li style=&quot;text-align: justify;&quot;&gt;wait for endpoints connections&lt;/li&gt;&lt;li style=&quot;text-align: justify;&quot;&gt;change p, q&lt;/li&gt;&lt;li style=&quot;text-align: justify;&quot;&gt;close conections&lt;/li&gt;&lt;/ol&gt;" style="rounded=1;whiteSpace=wrap;html=1;" vertex="1" parent="dQhIs027J35jETpGOHtC-5">
          <mxGeometry x="190" y="35" width="230" height="60" as="geometry" />
        </mxCell>
        <mxCell id="dQhIs027J35jETpGOHtC-18" value="&lt;ul&gt;&lt;li style=&quot;text-align: justify;&quot;&gt;generate secret key b&lt;/li&gt;&lt;li style=&quot;text-align: justify;&quot;&gt;compute B = g^b mod p&lt;/li&gt;&lt;li style=&quot;text-align: justify;&quot;&gt;sends B to Alice&amp;nbsp;&lt;/li&gt;&lt;li style=&quot;text-align: justify;&quot;&gt;recv A from Alice&lt;/li&gt;&lt;li style=&quot;text-align: justify;&quot;&gt;compute shared key&lt;/li&gt;&lt;li style=&quot;text-align: justify;&quot;&gt;&lt;br&gt;&lt;/li&gt;&lt;/ul&gt;" style="rounded=1;whiteSpace=wrap;html=1;" vertex="1" parent="dQhIs027J35jETpGOHtC-5">
          <mxGeometry x="610" y="295" width="240" height="95" as="geometry" />
        </mxCell>
        <mxCell id="dQhIs027J35jETpGOHtC-20" value="&lt;ul&gt;&lt;li style=&quot;text-align: justify;&quot;&gt;Alice conects to Bob server&lt;/li&gt;&lt;li style=&quot;text-align: justify;&quot;&gt;exchanges keys using DF&lt;/li&gt;&lt;li style=&quot;text-align: justify;&quot;&gt;comunicate securely with Bob&amp;nbsp;&lt;/li&gt;&lt;li style=&quot;text-align: justify;&quot;&gt;secure comunications means encrypted messages&lt;/li&gt;&lt;/ul&gt;" style="rounded=1;whiteSpace=wrap;html=1;" vertex="1" parent="dQhIs027J35jETpGOHtC-5">
          <mxGeometry x="84" y="282.5" width="266" height="95" as="geometry" />
        </mxCell>
        <mxCell id="dQhIs027J35jETpGOHtC-21" value="" style="endArrow=classic;startArrow=classic;html=1;rounded=0;exitX=0.995;exitY=0.5;exitDx=0;exitDy=0;exitPerimeter=0;entryX=0;entryY=0.5;entryDx=0;entryDy=0;entryPerimeter=0;" edge="1" parent="dQhIs027J35jETpGOHtC-5" source="dQhIs027J35jETpGOHtC-10" target="dQhIs027J35jETpGOHtC-11">
          <mxGeometry width="50" height="50" relative="1" as="geometry">
            <mxPoint x="310" y="220" as="sourcePoint" />
            <mxPoint x="360" y="170" as="targetPoint" />
          </mxGeometry>
        </mxCell>
        <mxCell id="dQhIs027J35jETpGOHtC-22" value="&lt;font style=&quot;font-size: 11px;&quot;&gt;Secure comunication&lt;/font&gt;" style="text;html=1;align=center;verticalAlign=middle;whiteSpace=wrap;rounded=0;" vertex="1" parent="dQhIs027J35jETpGOHtC-5">
          <mxGeometry x="440" y="295" width="60" height="30" as="geometry" />
        </mxCell>
      </root>
    </mxGraphModel>
  </diagram>
</mxfile>
